<svg width="15" height="16" viewBox="0 0 15 16" fill="none" xmlns="http://www.w3.org/2000/svg">
<path d="M13.5207 2.93582C13.8763 2.93582 14.1639 3.23093 14.1639 3.59575C14.1639 3.96057 13.8763 4.25569 13.5207 4.25569H0.643261C0.287661 4.25569 0 3.96057 0 3.59575C0 3.23093 0.287661 2.93582 0.643261 2.93582H13.5207Z" fill="#C4533A"/>
<path d="M1.43082 13.8716V3.59575C1.43082 3.23093 1.71848 2.93582 2.07408 2.93582C2.42968 2.93582 2.71735 3.23093 2.71735 3.59575V13.8716C2.71753 14.0237 2.79894 14.2305 2.97648 14.4127C3.15439 14.5952 3.35712 14.6786 3.50542 14.6786H10.659C10.8073 14.6786 11.01 14.5952 11.188 14.4127C11.3653 14.2305 11.4454 14.0236 11.4456 13.8716V3.59575C11.4456 3.23093 11.7348 2.93582 12.0904 2.93582C12.4457 2.9361 12.7336 3.23111 12.7336 3.59575V13.8716C12.7335 14.4532 12.4565 14.9801 12.098 15.3479C11.7393 15.7157 11.226 16 10.659 16H3.50542C2.93857 16 2.42508 15.7156 2.06646 15.3479C1.70793 14.9801 1.43099 14.4532 1.43082 13.8716Z" fill="#C4533A"/>
<path d="M9.29934 3.59523V2.12836C9.29934 1.97629 9.21947 1.76818 9.04173 1.58572C8.86381 1.40319 8.66109 1.31987 8.51279 1.31987H5.65165C5.50335 1.31987 5.30063 1.40319 5.12271 1.58572C4.9448 1.76824 4.86358 1.97622 4.86358 2.12836V3.59523C4.86358 3.96005 4.57592 4.25673 4.22032 4.25673C3.86472 4.25673 3.57706 3.96005 3.57706 3.59523V2.12836C3.57706 1.54655 3.85405 1.02005 4.2127 0.652114C4.57134 0.284175 5.08454 0 5.65165 0H8.51279C9.0799 0 9.5931 0.284175 9.95174 0.652114C10.3103 1.02004 10.5874 1.54669 10.5874 2.12836V3.59523C10.5874 3.95987 10.2995 4.25645 9.94412 4.25673C9.58852 4.25673 9.29934 3.96005 9.29934 3.59523Z" fill="#C4533A"/>
</svg>
