<svg width="20" height="20" viewBox="0 0 20 20" fill="none" xmlns="http://www.w3.org/2000/svg">
<path d="M15.9195 4.90575C15.9195 4.8012 15.8356 4.71725 15.731 4.71725H4.26897C4.16441 4.71725 4.08047 4.8012 4.08047 4.90575V18.9149C4.08047 19.0195 4.16441 19.1034 4.26897 19.1034H15.731C15.8356 19.1034 15.9195 19.0195 15.9195 18.9149V4.90575ZM12.5471 14.646C12.7947 14.646 12.9954 14.8467 12.9954 15.0943C12.9954 15.3418 12.7947 15.5425 12.5471 15.5425H7.45288C7.20529 15.5425 7.00459 15.3418 7.00459 15.0943C7.00459 14.8467 7.20529 14.646 7.45288 14.646H12.5471ZM12.5471 12.0988C12.7947 12.0988 12.9954 12.2995 12.9954 12.5471C12.9954 12.7947 12.7947 12.9954 12.5471 12.9954H7.45288C7.20529 12.9954 7.00459 12.7947 7.00459 12.5471C7.00459 12.2995 7.20529 12.0988 7.45288 12.0988H12.5471ZM12.5471 9.55172C12.7947 9.55172 12.9954 9.75241 12.9954 10C12.9954 10.2476 12.7947 10.4483 12.5471 10.4483H7.45288C7.20529 10.4483 7.00459 10.2476 7.00459 10C7.00459 9.75241 7.20529 9.55172 7.45288 9.55172H12.5471ZM9.36322 7.64138C9.6108 7.64138 9.8115 7.84207 9.8115 8.08966C9.8115 8.33724 9.6108 8.53794 9.36322 8.53794H7.45288C7.20529 8.53794 7.00459 8.33724 7.00459 8.08966C7.00459 7.84207 7.20529 7.64138 7.45288 7.64138H9.36322ZM16.8161 16.5563H18.9149C19.0195 16.5563 19.1034 16.4724 19.1034 16.3678V2.35862C19.1034 2.25407 19.0195 2.17012 18.9149 2.17012H15.0943C14.8467 2.17012 14.646 1.96943 14.646 1.72184C14.646 1.47426 14.8467 1.27356 15.0943 1.27356H18.9149C19.5147 1.27356 20 1.7589 20 2.35862V16.3678C20 16.9675 19.5147 17.4529 18.9149 17.4529H16.8161V18.9149C16.8161 19.5147 16.3308 20 15.731 20H4.26897C3.66924 20 3.18391 19.5147 3.18391 18.9149V4.90575C3.18391 4.30602 3.66924 3.82069 4.26897 3.82069H12.7356V1.08506C12.7356 0.980508 12.6517 0.896562 12.5471 0.896562H1.08506C0.980508 0.896562 0.896562 0.980508 0.896562 1.08506V15.0875C0.896594 15.088 0.896653 15.0888 0.896717 15.0897C0.89711 15.0952 0.898097 15.106 0.900449 15.1201C0.905505 15.1504 0.914737 15.184 0.928821 15.2122C0.942022 15.2386 0.954825 15.2513 0.965588 15.2585C0.973548 15.2638 1.00431 15.2828 1.08506 15.2828H1.72184C1.96943 15.2828 2.17012 15.4834 2.17012 15.731C2.17012 15.9786 1.96943 16.1793 1.72184 16.1793H1.08506C0.847431 16.1793 0.639389 16.1187 0.468258 16.0046C0.29993 15.8924 0.193326 15.7459 0.126936 15.6131C0.0614248 15.4821 0.0308558 15.3565 0.0160128 15.2674C0.00841604 15.2219 0.00442686 15.1829 0.00233196 15.1536C0.00127901 15.1388 0.000720351 15.1263 0.000388661 15.1163C0.000223386 15.1114 0.000137289 15.107 7.77324e-05 15.1033C4.81267e-05 15.1015 1.20084e-05 15.0998 2.63762e-10 15.0983V15.0947C-1.89512e-07 15.0945 -1.30566e-05 15.0943 0.448281 15.0943H2.63762e-10V1.08506C2.63762e-10 0.485336 0.485336 0 1.08506 0H12.5471C13.1469 0 13.6322 0.485336 13.6322 1.08506V3.82069H15.731C16.3308 3.82069 16.8161 4.30602 16.8161 4.90575V16.5563Z" fill="#82B0DF"/>
</svg>
