<svg width="21" height="24" viewBox="0 0 21 24" fill="none" xmlns="http://www.w3.org/2000/svg">
<path d="M12.8313 1.28543L1.85016 1.29112C1.71276 1.29638 1.58229 1.35248 1.48614 1.44753C1.38819 1.5444 1.33332 1.67456 1.33334 1.80984V22.1958L1.33629 22.2465C1.34813 22.3632 1.40049 22.4734 1.48614 22.5582C1.58414 22.6551 1.71809 22.7112 1.85842 22.7146H18.288C18.4306 22.7145 18.5677 22.6594 18.6685 22.5621C18.7692 22.4649 18.826 22.3332 18.8261 22.1958V7.09375H14.6732C14.6677 7.09375 14.6622 7.09332 14.6567 7.09318C14.1684 7.0814 13.7039 6.88658 13.3629 6.54944C13.022 6.21233 12.8313 5.75985 12.8313 5.28903V1.28543ZM14.1682 5.33965C14.18 5.45644 14.2324 5.56659 14.3181 5.65134C14.416 5.74818 14.5495 5.80431 14.6898 5.80775H19.4927C19.861 5.80775 20.1599 6.09541 20.16 6.45047V22.1958C20.16 22.6744 19.9623 23.1332 19.6113 23.4716C19.2603 23.81 18.7844 24 18.288 24H1.82479C1.33652 23.9882 0.872546 23.7928 0.531567 23.4557C0.190585 23.1185 -0.000128344 22.6662 6.48019e-08 22.1953V1.80984C-2.02682e-05 1.3391 0.190672 0.887049 0.531567 0.550005C0.872547 0.212907 1.33654 0.0174507 1.82479 0.00568783L13.498 8.69258e-08C13.6749 -8.82669e-05 13.8449 0.0671805 13.97 0.187696C14.0951 0.308291 14.1653 0.472124 14.1653 0.642715V5.28903L14.1682 5.33965Z" fill="#82B0DF"/>
<path d="M12.9729 0.194089C13.2334 -0.0570172 13.6553 -0.0570173 13.9157 0.194089L19.934 5.99616C20.1945 6.24726 20.1945 6.65395 19.934 6.90506C19.6736 7.15616 19.2517 7.15615 18.9913 6.90506L12.9729 1.10299C12.7125 0.851884 12.7125 0.445195 12.9729 0.194089Z" fill="#82B0DF"/>
<path d="M14.3113 14.3572C14.5535 14.5915 14.5535 14.9716 14.3113 15.206L10.3635 19.0242C10.1212 19.2585 9.72858 19.2585 9.48633 19.0242L5.53854 15.206C5.29632 14.9716 5.2963 14.5915 5.53854 14.3572C5.78077 14.1229 6.17375 14.1229 6.41599 14.3572L9.3046 17.1516L9.30461 7.8H10.5452V17.1516L13.4338 14.3572C13.6761 14.1229 14.0691 14.1229 14.3113 14.3572Z" fill="#82B0DF"/>
</svg>
