<svg width="29" height="48" viewBox="0 0 29 48" fill="none" xmlns="http://www.w3.org/2000/svg">
<path d="M17.8697 24.3747L19.3957 30.7962L17.6686 31.2155L17.1126 28.8553L16.7104 36.1274L14.936 36.0196L15.5866 24.4106C15.0898 24.4106 14.5811 24.4106 14.0488 24.4106C10.3698 24.4106 7.77922 24.2668 6.09945 24.1231C6.01664 24.4825 3.87553 34.6419 3.87553 43.2438C3.87553 46.4425 5.89835 48 14.0488 48C22.1992 48 24.222 46.4545 24.222 43.2438C24.222 34.6419 22.0809 24.4825 21.9981 24.1231C20.9808 24.2069 19.6204 24.3028 17.8933 24.3507L17.8697 24.3747Z" fill="#70A480"/>
<path d="M27.8396 12.9029C27.4742 11.7767 26.0951 2.76749 25.3761 1.44965C24.6571 0.11983 22.5708 0 22.5708 0C22.5708 0 20.0837 7.17624 14.037 13.1544C7.97848 7.17624 5.50321 0 5.50321 0C5.50321 0 3.41691 0.13181 2.6979 1.44965C1.9789 2.77947 0.599819 11.7767 0.234422 12.9029C-0.130974 14.029 -0.130974 14.2327 0.682328 15.3588C1.42491 16.3891 3.48763 19.7676 4.89028 21.1334C5.01994 21.2532 5.13781 21.3729 5.25568 21.4568C5.46785 17.6351 5.57393 15.5984 6.19864 12.4955C5.99826 17.0361 6.13971 22.2236 6.24579 22.2356C7.87239 22.3793 10.4184 22.5231 14.0488 22.5231C17.6792 22.5231 20.2252 22.3793 21.8518 22.2356C21.9461 22.2356 22.0993 17.0361 21.8989 12.4955C22.5236 15.5984 22.6297 17.6231 22.8419 21.4568C22.9597 21.361 23.0776 21.2532 23.2073 21.1334C24.6099 19.7676 26.6727 16.3891 27.4152 15.3588C28.2285 14.2327 28.2285 14.029 27.8631 12.9029H27.8396Z" fill="#70A480"/>
</svg>
