<svg width="17" height="16" viewBox="0 0 17 16" fill="none" xmlns="http://www.w3.org/2000/svg">
<path d="M14.5221 4.57143C15.4823 4.57171 16.2271 5.40752 16.1778 6.37277L16.1574 6.56808L14.8685 14.5681C14.7352 15.3942 14.0432 15.9995 13.2334 16H2.94697C2.13691 15.9998 1.44515 15.3943 1.31174 14.5681L0.0229698 6.56808C-0.145451 5.52317 0.63372 4.57143 1.65821 4.57143H14.5221ZM1.65821 5.71429C1.31675 5.71429 1.05708 6.03121 1.11313 6.37946L2.40189 14.3794C2.44631 14.6547 2.67707 14.8569 2.94697 14.8571H13.2334C13.5031 14.8567 13.7341 14.6546 13.7784 14.3794L15.0671 6.37946L15.0737 6.25112C15.0569 5.95725 14.8207 5.71455 14.5221 5.71429H1.65821Z" fill="#F4F1E9" fill-opacity="0.42"/>
<path d="M14.7217 2.85714C14.7217 2.54171 14.4742 2.28599 14.1691 2.28571H2.01116C1.70594 2.28571 1.45853 2.54155 1.45853 2.85714C1.45853 3.17273 1.70594 3.42857 2.01116 3.42857H14.1691C14.4742 3.4283 14.7217 3.17257 14.7217 2.85714Z" fill="#F4F1E9" fill-opacity="0.42"/>
<path d="M13.0638 0.571429C13.0638 0.256 12.8163 0.000274286 12.5112 0H3.66907C3.36385 0 3.11643 0.25584 3.11643 0.571429C3.11643 0.887017 3.36385 1.14286 3.66907 1.14286H12.5112C12.8163 1.14258 13.0638 0.886857 13.0638 0.571429Z" fill="#F4F1E9" fill-opacity="0.42"/>
</svg>
