<svg width="32" height="56" viewBox="0 0 32 56" fill="none" xmlns="http://www.w3.org/2000/svg">
<path d="M28.3542 25.1473L15.24 14.2319L3.1458 25.1321V52.1331C3.14581 52.3574 3.23868 52.5726 3.40386 52.7312C3.56903 52.8898 3.79313 52.979 4.02672 52.979H27.4733C27.7069 52.979 27.931 52.8898 28.0961 52.7312C28.2613 52.5726 28.3542 52.3574 28.3542 52.1331V25.1473ZM31.5 52.1331C31.5 53.1586 31.0757 54.1422 30.3206 54.8674C29.5654 55.5925 28.5412 56 27.4733 56H4.02672C2.95883 56 1.93456 55.5925 1.17942 54.8674C0.424289 54.1422 8.47477e-06 53.1586 0 52.1331V24.9915L0.00384009 24.8545C0.0213535 24.5351 0.0977244 24.2209 0.229637 23.9265L0.289287 23.8018C0.436206 23.5148 0.635219 23.2549 0.877076 23.034L0.88066 23.0306L0.884501 23.0271L13.3315 11.8094L13.3461 11.7958L13.3615 11.7828C13.8762 11.3424 14.5415 11.0991 15.2308 11.0991C15.9131 11.0991 16.5716 11.3377 17.084 11.7695L30.5377 22.9669L30.5425 22.9711L30.5474 22.975C30.8079 23.1954 31.0233 23.46 31.1831 23.7551L31.2481 23.8834L31.3059 24.0147C31.4324 24.3243 31.4984 24.6541 31.5 24.9875V52.1331Z" fill="#F4F1E9"/>
<path d="M22.575 11.3512C22.575 6.48164 19.264 3.04869 15.75 3.04869C12.236 3.04869 8.92504 6.48164 8.925 11.3512C8.925 16.2195 12.2454 19.654 15.75 19.654C16.6198 19.654 17.325 20.3365 17.325 21.1784C17.3249 22.0202 16.6198 22.7027 15.75 22.7027C9.97264 22.7027 5.775 17.3363 5.775 11.3512C5.77504 5.36753 9.96103 0 15.75 0C21.539 0 25.725 5.36753 25.725 11.3512C25.725 12.1931 25.0198 12.8756 24.15 12.8756C23.2801 12.8756 22.575 12.1931 22.575 11.3512Z" fill="#F4F1E9"/>
<path d="M10.9305 40.4872C8.88172 40.4872 7.34996 39.0559 7.34996 37.1354C7.34996 35.2331 8.88172 33.8018 10.9305 33.8018C12.9792 33.8018 14.511 35.2331 14.511 37.1354C14.511 39.0559 12.9792 40.4872 10.9305 40.4872ZM9.99225 46.7015L18.4553 34.0192H20.9635L12.5197 46.7015H9.99225ZM10.9305 38.6573C11.8304 38.6573 12.4239 38.0232 12.4239 37.1354C12.4239 36.2476 11.8304 35.6316 10.9305 35.6316C10.0305 35.6316 9.43699 36.2476 9.43699 37.1354C9.43699 38.0232 10.0305 38.6573 10.9305 38.6573ZM20.0445 46.9189C17.9957 46.9189 16.464 45.4876 16.464 43.5853C16.464 41.6648 17.9957 40.2335 20.0445 40.2335C22.0932 40.2335 23.625 41.6648 23.625 43.5853C23.625 45.4876 22.0932 46.9189 20.0445 46.9189ZM20.0445 45.089C20.9252 45.089 21.5379 44.473 21.5379 43.5853C21.5379 42.6794 20.9252 42.0634 20.0445 42.0634C19.1445 42.0634 18.551 42.6794 18.551 43.5853C18.551 44.473 19.1445 45.089 20.0445 45.089Z" fill="#F4F1E9"/>
</svg>
