<svg width="20" height="20" viewBox="0 0 20 20" fill="none" xmlns="http://www.w3.org/2000/svg">
<path fill-rule="evenodd" clip-rule="evenodd" d="M10 20C15.5228 20 20 15.5228 20 10C20 4.47715 15.5228 0 10 0C4.47715 0 0 4.47715 0 10C0 15.5228 4.47715 20 10 20ZM10 6.66667C10.9205 6.66667 11.6667 5.92048 11.6667 5C11.6667 4.07953 10.9205 3.33333 10 3.33333C9.07953 3.33333 8.33333 4.07953 8.33333 5C8.33333 5.92048 9.07953 6.66667 10 6.66667ZM11.1111 15.5556V8.88889H8.88889V15.5556H11.1111Z" fill="#C4A35A"/>
</svg>
