<svg width="14" height="14" viewBox="0 0 14 14" fill="none" xmlns="http://www.w3.org/2000/svg">
<path d="M13.125 7C13.125 3.61726 10.3827 0.875 7 0.875C3.61726 0.875 0.875 3.61726 0.875 7C0.875 10.3827 3.61726 13.125 7 13.125V14C3.13401 14 0 10.866 0 7C0 3.13401 3.13401 0 7 0C10.866 0 14 3.13401 14 7C14 10.866 10.866 14 7 14V13.125C10.3827 13.125 13.125 10.3827 13.125 7Z" fill="#F4F1E9" fill-opacity="0.42"/>
<path d="M7.00009 3.5C7.20706 3.5 7.37509 3.66803 7.37509 3.875V6.625H10.1252C10.3247 6.62509 10.4892 6.78144 10.4995 6.98072C10.5098 7.18001 10.3621 7.35242 10.1637 7.373L10.1252 7.375H7.37509V10.125C7.37509 10.332 7.20706 10.5 7.00009 10.5C6.79311 10.5 6.62508 10.332 6.62508 10.125V7.375H3.87501C3.66804 7.375 3.5 7.20697 3.5 7C3.5 6.79303 3.66804 6.625 3.87501 6.625H6.62508V3.875C6.62508 3.66789 6.79297 3.5 7.00009 3.5Z" fill="#F4F1E9" fill-opacity="0.42"/>
</svg>
