<svg width="15" height="15" viewBox="0 0 15 15" fill="none" xmlns="http://www.w3.org/2000/svg">
<path d="M10.3228 0.631523C11.2746 -0.238514 12.7431 -0.205784 13.6552 0.706231C14.5683 1.61924 14.6002 3.08988 13.7278 4.04168L13.727 4.04095L7.48605 10.9155C7.33148 12.8445 5.71882 14.3615 3.75 14.3615H0V10.6115C0.0001875 8.64319 1.51688 7.02979 3.44531 6.87469L10.3228 0.631523ZM12.5948 1.76751C12.2497 1.42244 11.6941 1.41004 11.3342 1.73968L11.3313 1.74261L5.31446 7.20356C6.1275 7.57736 6.78307 8.23339 7.15725 9.04631L12.6196 3.0302L12.6218 3.02801C12.9516 2.66827 12.9397 2.11266 12.5948 1.76751ZM1.5 12.8615H3.75C4.99264 12.8615 6 11.8542 6 10.6115C5.99978 9.36904 4.99252 8.36149 3.75 8.36149C2.50748 8.36149 1.5002 9.36904 1.5 10.6115V12.8615Z" fill="#F4F1E9"/>
</svg>
