<svg width="14" height="14" viewBox="0 0 14 14" fill="none" xmlns="http://www.w3.org/2000/svg">
<path d="M0 7C0 6.64856 0.285175 6.36339 0.636615 6.36339C0.988055 6.36339 1.27323 6.64856 1.27323 7C1.27323 10.1606 3.83939 12.7268 7 12.7268C10.1606 12.7268 12.7268 10.1606 12.7268 7C12.7268 3.83985 10.1614 1.27398 7.00138 1.27323C5.3905 1.27955 3.84305 1.90536 2.68317 3.02288L1.0868 4.62202C0.838296 4.87052 0.434933 4.87052 0.186427 4.62202C-0.0620783 4.37351 -0.0620783 3.97015 0.186427 3.72164L1.78418 2.12389L1.79246 2.11699C3.18946 0.766476 5.05421 0.00740407 6.99724 0H7C10.8635 0 14 3.13651 14 7C14 10.8635 10.8635 14 7 14C3.13651 14 0 10.8635 0 7Z" fill="#F4F1E9"/>
<path d="M0 0.636615C0 0.285175 0.285175 0 0.636615 0C0.988055 0 1.27323 0.285175 1.27323 0.636615V3.53521H4.17183C4.52327 3.53521 4.80844 3.82039 4.80844 4.17183C4.80844 4.52327 4.52327 4.80844 4.17183 4.80844H0.636615C0.285175 4.80844 0 4.52327 0 4.17183V0.636615Z" fill="#F4F1E9"/>
</svg>
