<svg width="20" height="20" viewBox="0 0 20 20" fill="none" xmlns="http://www.w3.org/2000/svg">
<path fill-rule="evenodd" clip-rule="evenodd" d="M11.8753 6.25014C12.2203 6.25014 12.5003 5.97075 12.5003 5.62512V3.12507C12.5003 2.77944 12.2203 2.50005 11.8753 2.50005C11.5303 2.50005 11.2502 2.77944 11.2502 3.12507V5.62512C11.2502 5.97075 11.5303 6.25014 11.8753 6.25014ZM18.7504 17.5004C18.7504 18.1904 18.1904 18.7504 17.5004 18.7504H2.50005C1.81004 18.7504 1.25003 18.1904 1.25003 17.5004V2.50005C1.25003 1.81004 1.81004 1.25003 2.50005 1.25003H3.75008V7.50016C3.75008 8.19018 4.31009 8.75019 5.00011 8.75019H15.0003C15.6903 8.75019 16.2504 8.19018 16.2504 7.50016V1.25003H17.5004C18.1904 1.25003 18.7504 1.81004 18.7504 2.50005V17.5004ZM5.00011 1.25003H15.0003V6.87515C15.0003 7.22078 14.7203 7.50016 14.3753 7.50016H5.62512C5.28011 7.50016 5.00011 7.22078 5.00011 6.87515V1.25003ZM17.5004 0H2.50005C1.1194 0 0 1.1194 0 2.50005V17.5004C0 18.881 1.1194 20.0004 2.50005 20.0004H17.5004C18.881 20.0004 20.0004 18.881 20.0004 17.5004V2.50005C20.0004 1.1194 18.881 0 17.5004 0Z" fill="#82B0DF"/>
</svg>
