<svg width="14" height="14" viewBox="0 0 14 14" fill="none" xmlns="http://www.w3.org/2000/svg">
<path fill-rule="evenodd" clip-rule="evenodd" d="M8.3125 4.375C8.554 4.375 8.75 4.17944 8.75 3.9375V2.1875C8.75 1.94556 8.554 1.75 8.3125 1.75C8.071 1.75 7.875 1.94556 7.875 2.1875V3.9375C7.875 4.17944 8.071 4.375 8.3125 4.375ZM13.125 12.25C13.125 12.733 12.733 13.125 12.25 13.125H1.75C1.267 13.125 0.875 12.733 0.875 12.25V1.75C0.875 1.267 1.267 0.875 1.75 0.875H2.625V5.25C2.625 5.733 3.017 6.125 3.5 6.125H10.5C10.983 6.125 11.375 5.733 11.375 5.25V0.875H12.25C12.733 0.875 13.125 1.267 13.125 1.75V12.25ZM3.5 0.875H10.5V4.8125C10.5 5.05444 10.304 5.25 10.0625 5.25H3.9375C3.696 5.25 3.5 5.05444 3.5 4.8125V0.875ZM12.25 0H1.75C0.783562 0 0 0.783562 0 1.75V12.25C0 13.2164 0.783562 14 1.75 14H12.25C13.2164 14 14 13.2164 14 12.25V1.75C14 0.783562 13.2164 0 12.25 0Z" fill="#F4F1E9" fill-opacity="0.42"/>
</svg>
