<svg width="15" height="15" viewBox="0 0 15 15" fill="none" xmlns="http://www.w3.org/2000/svg">
<path d="M4.04 2.05C4.21 1.42 4.79 0.96 5.48 0.96C6.17 0.96 6.74 1.42 6.92 2.05H14.04V3.45H6.92C6.74 4.08 6.17 4.54 5.48 4.54C4.79 4.54 4.21 4.08 4.04 3.45H0.96V2.05H4.04ZM5.48 3.22C5.74 3.22 5.95 3.01 5.95 2.75C5.95 2.49 5.74 2.28 5.48 2.28C5.22 2.28 5.01 2.49 5.01 2.75C5.01 3.01 5.22 3.22 5.48 3.22ZM8.08 6.8C8.26 6.17 8.83 5.71 9.52 5.71C10.21 5.71 10.79 6.17 10.96 6.8H14.04V8.2H10.96C10.79 8.83 10.21 9.29 9.52 9.29C8.83 9.29 8.26 8.83 8.08 8.2H0.96V6.8H8.08ZM9.52 7.97C9.78 7.97 9.99 7.76 9.99 7.5C9.99 7.24 9.78 7.03 9.52 7.03C9.26 7.03 9.05 7.24 9.05 7.5C9.05 7.76 9.26 7.97 9.52 7.97ZM4.04 11.55C4.21 10.92 4.79 10.46 5.48 10.46C6.17 10.46 6.74 10.92 6.92 11.55H14.04V12.95H6.92C6.74 13.58 6.17 14.04 5.48 14.04C4.79 14.04 4.21 13.58 4.04 12.95H0.96V11.55H4.04ZM5.48 12.72C5.74 12.72 5.95 12.51 5.95 12.25C5.95 11.99 5.74 11.78 5.48 11.78C5.22 11.78 5.01 11.99 5.01 12.25C5.01 12.51 5.22 12.72 5.48 12.72Z" fill="#C4A35A"/>
</svg>
