<svg width="53" height="56" viewBox="0 0 53 56" fill="none" xmlns="http://www.w3.org/2000/svg">
<path d="M10.5473 18.1799C10.5473 17.6814 10.144 17.2792 9.64424 17.2792C9.14449 17.2792 8.74119 17.6814 8.74119 18.1799C8.74119 19.3779 9.53903 20.7945 13.1425 20.9869V22.7358C13.1425 23.2167 13.537 23.6102 14.0192 23.6102C14.5014 23.6102 14.896 23.2167 14.896 22.7358V20.9781C18.8501 20.6458 19.2972 18.0487 19.2972 16.8944C19.2972 15.1455 18.4994 13.0993 14.896 12.8107V8.82324C16.2286 8.96315 16.7547 9.41786 16.7722 9.75016C16.7371 10.2311 17.0878 10.6508 17.57 10.7033C18.0698 10.747 18.5082 10.406 18.5695 9.90756C18.5871 9.7589 18.6309 8.98064 17.9646 8.23735C17.3421 7.53779 16.3075 7.13554 14.9047 7.01312V5.24672C14.9047 4.76577 14.5102 4.37227 14.028 4.37227C13.5458 4.37227 13.1512 4.76577 13.1512 5.24672V7.01312C10.1264 7.21424 8.74995 8.49094 8.74995 11.0968C8.74995 13.9738 11.4766 14.4722 13.1512 14.5509V19.1855C11.5643 19.0806 10.5473 18.7046 10.5473 18.1799ZM17.5087 16.8944C17.5087 17.4104 17.4999 18.8969 14.9047 19.168V14.6034C16.7371 14.7608 17.5087 15.4516 17.5087 16.8944ZM10.5473 11.0968C10.5473 10.065 10.5561 8.99813 13.1512 8.80575V12.7408C10.5561 12.5659 10.5473 11.6215 10.5473 11.0968Z" fill="#F4F1E9"/>
<path d="M14.028 27.9825C21.7784 27.9825 28.056 21.7214 28.056 13.9913C28.056 6.26109 21.7784 0 14.028 0C6.27752 0 0 6.26109 0 13.9913C0 21.7214 6.27752 27.9825 14.028 27.9825ZM14.028 1.74891C20.7965 1.74891 26.3025 7.24047 26.3025 13.9913C26.3025 20.742 20.7965 26.2336 14.028 26.2336C7.25948 26.2336 1.7535 20.742 1.7535 13.9913C1.7535 7.24047 7.25948 1.74891 14.028 1.74891Z" fill="#F4F1E9"/>
<path d="M24.549 31.4366H3.507C2.51627 31.4366 1.71843 32.2411 1.71843 33.2292V36.727C1.71843 37.7152 2.52504 38.5109 3.507 38.5109H24.549C25.5397 38.5109 26.3375 37.7064 26.3375 36.727V33.2292C26.3375 32.2411 25.5309 31.4366 24.549 31.4366ZM3.54207 36.727L3.507 33.2642H24.5139L24.549 36.6833L3.55083 36.727H3.54207Z" fill="#F4F1E9"/>
<path d="M24.549 40.1811H3.507C2.51627 40.1811 1.71843 40.9856 1.71843 41.9738V45.4716C1.71843 46.4597 2.52504 47.2555 3.507 47.2555H24.549C25.5397 47.2555 26.3375 46.451 26.3375 45.4716V41.9738C26.3375 40.9856 25.5309 40.1811 24.549 40.1811ZM3.54207 45.4716L3.507 42.0087H24.5139L24.549 45.4279L3.55083 45.4716H3.54207Z" fill="#F4F1E9"/>
<path d="M24.549 48.9257H3.507C2.51627 48.9257 1.71843 49.7302 1.71843 50.7183V54.2161C1.71843 55.2042 2.52504 56 3.507 56H24.549C25.5397 56 26.3375 55.1955 26.3375 54.2161V50.7183C26.3375 49.7302 25.5309 48.9257 24.549 48.9257ZM3.54207 54.2161L3.507 50.7533H24.5139L24.549 54.1724L3.55083 54.2161H3.54207Z" fill="#F4F1E9"/>
<path d="M50.8514 40.1811H29.8095C28.8187 40.1811 28.0209 40.9856 28.0209 41.9738V45.4716C28.0209 46.4597 28.8275 47.2555 29.8095 47.2555H50.8514C51.8422 47.2555 52.64 46.451 52.64 45.4716V41.9738C52.64 40.9856 51.8334 40.1811 50.8514 40.1811ZM29.8445 45.4716L29.8095 42.0087H50.8164L50.8514 45.4279L29.8533 45.4716H29.8445Z" fill="#F4F1E9"/>
<path d="M50.8514 48.9257H29.8095C28.8187 48.9257 28.0209 49.7302 28.0209 50.7183V54.2161C28.0209 55.2042 28.8275 56 29.8095 56H50.8514C51.8422 56 52.64 55.1955 52.64 54.2161V50.7183C52.64 49.7302 51.8334 48.9257 50.8514 48.9257ZM29.8445 54.2161L29.8095 50.7533H50.8164L50.8514 54.1724L29.8533 54.2161H29.8445Z" fill="#F4F1E9"/>
</svg>
