<svg width="20" height="20" viewBox="0 0 20 20" fill="none" xmlns="http://www.w3.org/2000/svg">
<path d="M19.714 10.0031C19.715 8.3864 19.3123 6.79505 18.5423 5.37337C17.7724 3.95169 16.6596 2.74467 15.3048 1.8618C13.9501 0.978925 12.3963 0.448137 10.7844 0.31758C9.17255 0.187024 7.55356 0.460831 6.07433 1.11416C4.59509 1.7675 3.30242 2.77968 2.31357 4.0589C1.32473 5.33813 0.67099 6.84391 0.411666 8.43966C0.152342 10.0354 0.295637 11.6706 0.828551 13.197C1.36146 14.7234 2.26714 16.0926 3.46341 17.1805C3.48706 17.2085 3.5146 17.2331 3.5452 17.2534C5.32155 18.8382 7.61921 19.7141 10.0001 19.7141C12.381 19.7141 14.6786 18.8381 16.455 17.2532C16.4854 17.233 16.5128 17.2085 16.5364 17.1806C17.5376 16.2721 18.3376 15.1641 18.8849 13.928C19.4321 12.6918 19.7145 11.3549 19.714 10.0031ZM1.06308 10.0031C1.06206 8.53426 1.4233 7.08786 2.11482 5.79191C2.80634 4.49596 3.80682 3.39044 5.02766 2.57323C6.24851 1.75601 7.65208 1.25231 9.1141 1.10672C10.5761 0.961122 12.0515 1.17812 13.4096 1.73851C14.7678 2.2989 15.9667 3.18539 16.9004 4.3195C17.8341 5.4536 18.4736 6.80034 18.7625 8.24048C19.0513 9.68063 18.9805 11.1698 18.5564 12.576C18.1322 13.9823 17.3678 15.2623 16.3307 16.3028C15.3662 14.6881 13.8187 13.5049 12.0072 12.9971C12.8491 12.5494 13.5171 11.8331 13.9048 10.9622C14.2926 10.0912 14.3779 9.11569 14.1471 8.19072C13.9163 7.26575 13.3827 6.44449 12.6313 5.85761C11.8798 5.27073 10.9536 4.95193 9.99997 4.95193C9.04637 4.95193 8.12015 5.27073 7.36868 5.85761C6.6172 6.44449 6.08363 7.26575 5.85286 8.19072C5.62208 9.11569 5.70735 10.0912 6.0951 10.9622C6.48285 11.8331 7.15081 12.5494 7.99271 12.9971C6.18128 13.5049 4.63377 14.6881 3.66921 16.3028C2.84226 15.4752 2.18647 14.493 1.73931 13.4121C1.29214 12.3312 1.06236 11.1728 1.06308 10.0031ZM9.99997 12.7222C9.30832 12.7222 8.6322 12.5171 8.05712 12.133C7.48203 11.7488 7.03381 11.2028 6.76912 10.564C6.50444 9.92523 6.43519 9.22231 6.57012 8.54416C6.70505 7.86601 7.03812 7.24308 7.52719 6.75416C8.01626 6.26524 8.63937 5.93229 9.31773 5.79739C9.99609 5.6625 10.6992 5.73173 11.3382 5.99633C11.9772 6.26094 12.5234 6.70902 12.9077 7.28393C13.2919 7.85884 13.497 8.53475 13.497 9.22619C13.496 10.1531 13.1272 11.0417 12.4716 11.6971C11.816 12.3525 10.9271 12.7211 9.99997 12.7222ZM4.25556 16.8413C4.83226 15.8265 5.66767 14.9825 6.67672 14.3954C7.68578 13.8083 8.83245 13.499 9.99996 13.499C11.1675 13.499 12.3141 13.8083 13.3232 14.3955C14.3322 14.9826 15.1676 15.8265 15.7443 16.8413C14.1365 18.1949 12.102 18.9372 9.99994 18.9372C7.8979 18.9372 5.86342 18.1949 4.25556 16.8413Z" fill="#F4F1E9"/>
<path d="M5.95879 0.852685C7.48157 0.180123 9.14821 -0.101746 10.8075 0.0326532C12.4669 0.167053 14.0664 0.71342 15.461 1.62226C16.8556 2.53113 18.0012 3.77372 18.7938 5.23725C19.5864 6.7007 20.001 8.33879 20 10.003L19.9991 10.1334C19.9821 11.4805 19.6921 12.8108 19.1463 14.0437C18.5853 15.3108 17.7663 16.447 16.7416 17.3801C16.7087 17.4169 16.6718 17.4499 16.6316 17.4785C14.8048 19.1025 12.4452 20 10.0002 20C7.55498 20 5.19507 19.1026 3.36816 17.4785C3.32806 17.4499 3.29121 17.417 3.25831 17.3803C2.03312 16.2623 1.10521 14.8571 0.5585 13.2912C0.0098966 11.7199 -0.137526 10.0365 0.129432 8.39381C0.396393 6.75108 1.06936 5.20094 2.08732 3.88406C3.10528 2.56719 4.43602 1.52525 5.95879 0.852685ZM10.7613 0.602512C9.19691 0.4758 7.62556 0.741597 6.18988 1.3757C4.7542 2.00979 3.49955 2.99216 2.53982 4.23371C1.58009 5.47527 0.945653 6.93675 0.693965 8.48551C0.442276 10.0343 0.581332 11.6214 1.09856 13.1028C1.59962 14.5379 2.44022 15.8299 3.54784 16.8691L3.65588 16.969L3.66992 16.9818L3.68216 16.9963C3.68521 16.9999 3.68851 17.0033 3.69203 17.0065L3.70332 17.0152L3.72039 17.0265L3.73567 17.0401C5.4596 18.5782 7.68943 19.4283 10.0001 19.4282C12.3107 19.4282 14.5407 18.5781 16.2646 17.0399L16.2797 17.0263L16.2967 17.015C16.3046 17.0098 16.3116 17.0035 16.3177 16.9963L16.33 16.9817L16.3442 16.9689C17.3159 16.0872 18.0922 15.0119 18.6233 13.8123C19.1545 12.6126 19.4285 11.315 19.428 10.0031V10.0029C19.429 8.4338 19.0381 6.88933 18.2908 5.50952C17.5436 4.1297 16.4635 2.95815 15.1487 2.10127C13.8338 1.24439 12.3258 0.729225 10.7613 0.602512ZM9.99997 13.2132C11.218 13.2132 12.4143 13.5358 13.467 14.1483C14.5198 14.7609 15.3913 15.6414 15.993 16.7001L16.1105 16.9069L15.9286 17.06C14.2691 18.457 12.1694 19.2231 9.99997 19.2231C7.83053 19.2231 5.7308 18.457 4.07139 17.0599L3.88944 16.9068L4.00688 16.7001C4.60854 15.6413 5.48017 14.7609 6.5329 14.1483C7.58563 13.5358 8.78192 13.2132 9.99997 13.2132ZM9.99997 13.7849C8.88299 13.7849 7.78591 14.0808 6.82053 14.6425C5.92458 15.1638 5.17189 15.8969 4.62719 16.7757C6.15266 17.9886 8.04612 18.6514 9.99997 18.6514C11.9538 18.6514 13.8472 17.9886 15.3727 16.7757C14.828 15.8969 14.0753 15.1638 13.1793 14.6425C12.214 14.0808 11.1169 13.7849 9.99997 13.7849ZM9.08577 0.822243C10.5946 0.671992 12.1172 0.895911 13.5187 1.47423C14.9203 2.05255 16.1576 2.96744 17.1212 4.13784C18.0847 5.30823 18.7447 6.69809 19.0428 8.18432C19.3409 9.67054 19.2679 11.2073 18.8301 12.6586C18.3924 14.1099 17.6035 15.4308 16.5333 16.5046L16.2738 16.765L16.0852 16.4494C15.1582 14.8975 13.671 13.7603 11.9301 13.2724L11.2429 13.0798L11.873 12.7447C12.6585 12.327 13.2818 11.6586 13.6436 10.8459C14.0054 10.0333 14.085 9.12298 13.8696 8.2599C13.6543 7.39682 13.1564 6.6305 12.4552 6.08289C11.754 5.53527 10.8898 5.23782 9.99997 5.23782C9.11017 5.23782 8.24591 5.53527 7.54472 6.08289C6.84352 6.6305 6.34564 7.39682 6.1303 8.2599C5.91497 9.12298 5.99456 10.0333 6.35636 10.8459C6.71816 11.6586 7.34143 12.327 8.12699 12.7447L8.75707 13.0798L8.06988 13.2724C6.329 13.7603 4.84176 14.8975 3.91477 16.4493L3.72646 16.7645L3.46692 16.5048C2.61342 15.6507 1.93659 14.6369 1.47507 13.5213C1.01355 12.4057 0.776322 11.2101 0.777065 10.0029C0.776078 8.4872 1.14891 6.99466 1.86249 5.65737C2.57614 4.31996 3.60862 3.17907 4.86852 2.3357C6.12844 1.49234 7.57696 0.972497 9.08577 0.822243ZM13.3006 2.00274C11.9859 1.46028 10.5576 1.25031 9.14241 1.39125C7.72718 1.53219 6.36856 2.01977 5.18679 2.81082C4.00501 3.60188 3.03656 4.67203 2.36717 5.92651C1.69778 7.18098 1.3481 8.58107 1.34909 10.0029V10.0032C1.34839 11.1354 1.57075 12.2566 2.00355 13.3028C2.39047 14.2381 2.93893 15.0969 3.62268 15.8408C4.5168 14.4976 5.81305 13.474 7.32226 12.9146C6.67631 12.4461 6.16135 11.8141 5.83385 11.0785C5.42016 10.1493 5.32914 9.10839 5.57535 8.12154C5.82157 7.13469 6.39084 6.25848 7.19258 5.63233C7.99434 5.00618 8.98256 4.66606 9.99997 4.66606C11.0174 4.66606 12.0056 5.00618 12.8074 5.63233C13.6091 6.25848 14.1784 7.13469 14.4246 8.12154C14.6708 9.10839 14.5798 10.1493 14.1661 11.0785C13.8386 11.8141 13.3236 12.4461 12.6776 12.9146C14.1867 13.4739 15.4828 14.4974 16.3769 15.8404C17.2546 14.8832 17.9067 13.7396 18.2826 12.4935C18.6932 11.1322 18.7617 9.69075 18.4821 8.2967C18.2025 6.90264 17.5834 5.59896 16.6796 4.50115C15.7758 3.40334 14.6152 2.5452 13.3006 2.00274ZM9.26193 5.51701C9.99577 5.37109 10.7564 5.44595 11.4477 5.73219C12.1389 6.01843 12.7298 6.50319 13.1455 7.12512C13.5611 7.74703 13.783 8.4782 13.783 9.22617V9.22655C13.7819 10.2291 13.3829 11.1903 12.6738 11.8993C11.9646 12.6082 11.0031 13.0069 10.0003 13.0081H9.99997C9.25177 13.0081 8.52038 12.7862 7.89827 12.3707C7.27616 11.9551 6.79125 11.3645 6.50492 10.6734C6.21859 9.98239 6.1437 9.22197 6.28967 8.48836C6.43565 7.75476 6.79595 7.08093 7.32501 6.55203C7.85407 6.02314 8.52811 5.66294 9.26193 5.51701ZM11.2288 6.26042C10.6421 6.01745 9.99638 5.9539 9.37349 6.07777C8.75062 6.20163 8.17848 6.50738 7.72942 6.95631C7.28034 7.40525 6.9745 7.97728 6.8506 8.59998C6.72671 9.22266 6.79028 9.8681 7.03331 10.4547C7.27634 11.0412 7.68792 11.5426 8.21597 11.8953C8.74397 12.248 9.36476 12.4362 9.99978 12.4362C10.8512 12.4352 11.6674 12.0967 12.2694 11.4949C12.8714 10.8931 13.21 10.0772 13.211 9.22617C13.211 8.5913 13.0227 7.97069 12.6699 7.44281C12.3171 6.91492 11.8156 6.50338 11.2288 6.26042Z" fill="#F4F1E9"/>
</svg>
