<svg width="56" height="56" viewBox="0 0 56 56" fill="none" xmlns="http://www.w3.org/2000/svg">
<path d="M43.3548 0C36.3819 0 30.7097 5.67226 30.7097 12.6452V26.1936H32.5161V19.1249C34.7281 22.811 38.752 25.2903 43.3548 25.2903C47.9577 25.2903 51.9815 22.811 54.1936 19.1249V52.3871H56V12.6452C56 5.67226 50.3277 0 43.3548 0ZM43.3548 23.4839C37.3782 23.4839 32.5161 18.6218 32.5161 12.6452C32.5161 6.66852 37.3782 1.80645 43.3548 1.80645C49.3315 1.80645 54.1936 6.66852 54.1936 12.6452C54.1936 18.6218 49.3315 23.4839 43.3548 23.4839Z" fill="#F4F1E9"/>
<path d="M44.2581 6.32258V4.51613H42.4516V6.32258C40.4591 6.32258 38.8387 7.94297 38.8387 9.93548C38.8387 11.928 40.4591 13.5484 42.4516 13.5484H44.2581C45.2543 13.5484 46.0645 14.3586 46.0645 15.3548C46.0645 16.3511 45.2543 17.1613 44.2581 17.1613H42.4516C41.4554 17.1613 40.6452 16.3511 40.6452 15.3548V14.4516H38.8387V15.3548C38.8387 17.3474 40.4591 18.9677 42.4516 18.9677V20.7742H44.2581V18.9677C46.2506 18.9677 47.871 17.3474 47.871 15.3548C47.871 13.3623 46.2506 11.7419 44.2581 11.7419H42.4516C41.4554 11.7419 40.6452 10.9317 40.6452 9.93548C40.6452 8.93923 41.4554 8.12903 42.4516 8.12903H44.2581C45.2543 8.12903 46.0645 8.93923 46.0645 9.93548V10.8387H47.871V9.93548C47.871 7.94297 46.2506 6.32258 44.2581 6.32258Z" fill="#F4F1E9"/>
<path d="M9.93548 15.3548C4.45742 15.3548 0 19.8123 0 25.2903V40.6452H1.80645V30.9852C3.60568 33.5449 6.57548 35.2258 9.93548 35.2258C13.2955 35.2258 16.2653 33.5449 18.0645 30.9852V48.7742H19.871V25.2903C19.871 19.8123 15.4135 15.3548 9.93548 15.3548ZM9.93548 33.4194C5.45277 33.4194 1.80645 29.773 1.80645 25.2903C1.80645 20.8076 5.45277 17.1613 9.93548 17.1613C14.4182 17.1613 18.0645 20.8076 18.0645 25.2903C18.0645 29.773 14.4182 33.4194 9.93548 33.4194Z" fill="#F4F1E9"/>
<path d="M9.03226 22.5806H10.8387C11.3373 22.5806 11.7419 22.9853 11.7419 23.4839H13.5484C13.5484 21.9899 12.3326 20.7742 10.8387 20.7742V18.9677H9.03226V20.7742C7.53832 20.7742 6.32258 21.9899 6.32258 23.4839C6.32258 24.9778 7.53832 26.1936 9.03226 26.1936H10.8387C11.3373 26.1936 11.7419 26.5982 11.7419 27.0968C11.7419 27.5954 11.3373 28 10.8387 28H9.03226C8.53368 28 8.12903 27.5954 8.12903 27.0968H6.32258C6.32258 28.5907 7.53832 29.8065 9.03226 29.8065V31.6129H10.8387V29.8065C12.3326 29.8065 13.5484 28.5907 13.5484 27.0968C13.5484 25.6028 12.3326 24.3871 10.8387 24.3871H9.03226C8.53368 24.3871 8.12903 23.9825 8.12903 23.4839C8.12903 22.9853 8.53368 22.5806 9.03226 22.5806Z" fill="#F4F1E9"/>
<path d="M31.6129 28C26.1348 28 21.6774 32.4574 21.6774 37.9355V50.5806H23.4839V43.6303C25.2831 46.1901 28.2529 47.871 31.6129 47.871C34.9729 47.871 37.9427 46.1901 39.7419 43.6303V50.5806H41.5484V37.9355C41.5484 32.4574 37.091 28 31.6129 28ZM31.6129 46.0645C27.1302 46.0645 23.4839 42.4182 23.4839 37.9355C23.4839 33.4528 27.1302 29.8065 31.6129 29.8065C36.0956 29.8065 39.7419 33.4528 39.7419 37.9355C39.7419 42.4182 36.0956 46.0645 31.6129 46.0645Z" fill="#F4F1E9"/>
<path d="M30.7097 35.2258H32.5161C33.0147 35.2258 33.4194 35.6305 33.4194 36.129H35.2258C35.2258 34.6351 34.0101 33.4194 32.5161 33.4194V31.6129H30.7097V33.4194C29.2157 33.4194 28 34.6351 28 36.129C28 37.623 29.2157 38.8387 30.7097 38.8387H32.5161C33.0147 38.8387 33.4194 39.2434 33.4194 39.7419C33.4194 40.2405 33.0147 40.6452 32.5161 40.6452H30.7097C30.2111 40.6452 29.8065 40.2405 29.8065 39.7419H28C28 41.2359 29.2157 42.4516 30.7097 42.4516V44.2581H32.5161V42.4516C34.0101 42.4516 35.2258 41.2359 35.2258 39.7419C35.2258 38.248 34.0101 37.0323 32.5161 37.0323H30.7097C30.2111 37.0323 29.8065 36.6276 29.8065 36.129C29.8065 35.6305 30.2111 35.2258 30.7097 35.2258Z" fill="#F4F1E9"/>
<path d="M56 54.1936H54.1936V56H56V54.1936Z" fill="#F4F1E9"/>
<path d="M48.7742 37.0323H46.9677V48.7742H48.7742V37.0323Z" fill="#F4F1E9"/>
<path d="M48.7742 26.1936H46.9677V35.2258H48.7742V26.1936Z" fill="#F4F1E9"/>
<path d="M48.7742 50.5807H46.9677V52.3871H48.7742V50.5807Z" fill="#F4F1E9"/>
<path d="M39.7419 26.1936H37.9355V28.9032H39.7419V26.1936Z" fill="#F4F1E9"/>
<path d="M41.5484 52.3871H39.7419V54.1936H41.5484V52.3871Z" fill="#F4F1E9"/>
<path d="M23.4839 52.3871H21.6774V54.1936H23.4839V52.3871Z" fill="#F4F1E9"/>
<path d="M35.2258 49.6774H33.4194V52.3871H35.2258V49.6774Z" fill="#F4F1E9"/>
<path d="M35.2258 54.1936H33.4194V56H35.2258V54.1936Z" fill="#F4F1E9"/>
<path d="M29.8065 49.6774H28V52.3871H29.8065V49.6774Z" fill="#F4F1E9"/>
<path d="M29.8065 54.1936H28V56H29.8065V54.1936Z" fill="#F4F1E9"/>
<path d="M1.80645 42.4516H0V46.9677H1.80645V42.4516Z" fill="#F4F1E9"/>
<path d="M1.80645 48.7742H0V50.5806H1.80645V48.7742Z" fill="#F4F1E9"/>
<path d="M19.871 50.5807H18.0645V52.3871H19.871V50.5807Z" fill="#F4F1E9"/>
<path d="M8.12903 37.0323H6.32258V50.5806H8.12903V37.0323Z" fill="#F4F1E9"/>
<path d="M8.12903 52.3871H6.32258V54.1936H8.12903V52.3871Z" fill="#F4F1E9"/>
<path d="M13.5484 37.0323H11.7419V52.3871H13.5484V37.0323Z" fill="#F4F1E9"/>
<path d="M13.5484 54.1936H11.7419V56H13.5484V54.1936Z" fill="#F4F1E9"/>
<path d="M25.2903 0H23.4839V1.80645H25.2903V0Z" fill="#F4F1E9"/>
<path d="M23.1087 1.96281L21.8313 0.685468L20.554 1.96281L21.8313 3.24015L23.1087 1.96281Z" fill="#F4F1E9"/>
<path d="M21.6774 3.6129H19.871V5.41935H21.6774V3.6129Z" fill="#F4F1E9"/>
<path d="M23.1081 7.07172L21.8308 5.79438L20.5534 7.07172L21.8308 8.34906L23.1081 7.07172Z" fill="#F4F1E9"/>
<path d="M25.2903 7.22581H23.4839V9.03226H25.2903V7.22581Z" fill="#F4F1E9"/>
<path d="M28.2183 7.07008L26.941 5.79274L25.6636 7.07008L26.941 8.34742L28.2183 7.07008Z" fill="#F4F1E9"/>
<path d="M28.9032 3.6129H27.0968V5.41935H28.9032V3.6129Z" fill="#F4F1E9"/>
<path d="M28.2189 1.96204L26.9415 0.684696L25.6642 1.96204L26.9415 3.23938L28.2189 1.96204Z" fill="#F4F1E9"/>
<path d="M5.41935 3.6129H3.6129V5.41935H5.41935V3.6129Z" fill="#F4F1E9"/>
<path d="M3.23937 5.5741L1.96202 4.29676L0.684682 5.5741L1.96202 6.85144L3.23937 5.5741Z" fill="#F4F1E9"/>
<path d="M1.80645 7.22581H0V9.03226H1.80645V7.22581Z" fill="#F4F1E9"/>
<path d="M0.684021 10.6832L1.96136 11.9605L3.2387 10.6832L1.96136 9.40587L0.684021 10.6832Z" fill="#F4F1E9"/>
<path d="M5.41935 10.8387H3.6129V12.6452H5.41935V10.8387Z" fill="#F4F1E9"/>
<path d="M5.793 10.6838L7.07034 11.9612L8.34769 10.6838L7.07034 9.40649L5.793 10.6838Z" fill="#F4F1E9"/>
<path d="M9.03226 7.22581H7.22581V9.03226H9.03226V7.22581Z" fill="#F4F1E9"/>
<path d="M8.34747 5.57465L7.07012 4.29731L5.79278 5.57465L7.07012 6.85199L8.34747 5.57465Z" fill="#F4F1E9"/>
<path d="M25.2903 10.8387H23.4839V24.3871H25.2903V10.8387Z" fill="#F4F1E9"/>
<path d="M25.2903 26.1936H23.4839V28H25.2903V26.1936Z" fill="#F4F1E9"/>
</svg>
