<svg width="39" height="56" viewBox="0 0 39 56" fill="none" xmlns="http://www.w3.org/2000/svg">
<path d="M38.3668 21.0555C38.3166 20.9886 38.2581 20.9468 38.1578 20.9134C37.9321 20.8632 23.2543 24.6163 23.0955 24.6831C22.2596 25.0426 22.0506 25.3686 19.217 32.7242C18.7908 31.6041 16.5506 26.0372 16.2832 25.5524C16.1076 25.2682 15.9154 25.0509 15.6646 24.8587C15.255 24.5745 0.644087 20.905 0.410044 20.8967C0.134208 20.8967 -0.0747588 21.0889 0.0255452 21.5654C0.0255452 21.5654 1.99819 27.8344 2.66688 30.133C3.14333 31.8047 2.51643 50.2105 3.09318 51.3891C3.32722 51.8404 3.66157 52.2082 4.12965 52.4506C4.53087 52.6512 18.2474 55.9446 18.4982 55.9696C18.9328 56.0114 19.635 56.0114 20.0613 55.9613C20.3789 55.9111 33.9952 52.6429 34.4047 52.4088C35.0484 52.0327 35.5164 51.3473 35.5917 50.5783C35.5917 50.4947 35.6 30.81 35.6084 30.7766C35.6669 30.5175 35.8675 29.8488 35.9427 29.5897C36.3941 28.0851 38.442 21.4651 38.442 21.4651C38.4587 21.3146 38.4587 21.1725 38.3751 21.0471L38.3668 21.0555ZM2.53315 24.0228L2.23223 23.0616L14.7034 26.2295C14.9374 26.4217 17.2528 32.2561 17.3614 32.5403C17.4617 32.791 17.5537 33.0502 17.6623 33.2926C9.18664 31.345 5.8181 30.4673 4.43056 30.3169C4.16309 29.247 2.86749 25.0927 2.53315 24.0228ZM4.53087 50.5114C4.49743 50.3944 4.53087 36.6528 4.49743 31.9803C6.13573 32.4734 9.92221 33.2424 18.4564 35.1983C18.2558 36.8366 18.3812 41.4423 18.3895 54.2561C16.3835 53.788 4.94044 51.0297 4.79834 50.9126C4.66461 50.7956 4.57266 50.6535 4.53087 50.5114ZM33.5772 50.9628C33.4686 51.0213 22.736 53.6292 20.0613 54.2143C20.0613 40.8906 20.2117 36.4605 19.9693 34.9977L33.9534 31.9803C33.9199 36.6695 33.9617 50.4278 33.8865 50.6034C33.8196 50.7455 33.711 50.8792 33.5856 50.9544L33.5772 50.9628ZM35.9093 24.0228C35.5332 25.2432 34.3212 29.1049 34.0202 30.2584L20.8637 33.092C20.9389 32.9081 21.0058 32.7158 21.081 32.5319C21.1897 32.2477 23.505 26.4217 23.7391 26.2211L36.2102 23.0532L35.9093 24.0144V24.0228Z" fill="#F4F1E9"/>
<path d="M17.0526 13.3403C17.0526 12.9745 16.7574 12.6793 16.3917 12.6793C16.0259 12.6793 15.7308 12.9745 15.7308 13.3403C15.7308 14.2193 16.3147 15.2588 18.9519 15.4V16.6833C18.9519 17.0363 19.2407 17.325 19.5936 17.325C19.9465 17.325 20.2353 17.0363 20.2353 16.6833V15.3936C23.1292 15.1497 23.4564 13.244 23.4564 12.397C23.4564 11.1137 22.8725 9.61217 20.2353 9.40042V6.47442C21.2106 6.57708 21.5956 6.91075 21.6084 7.15458C21.5828 7.5075 21.8394 7.8155 22.1923 7.854C22.5581 7.88608 22.8789 7.63583 22.9238 7.27008C22.9367 7.161 22.9688 6.58992 22.4811 6.0445C22.0255 5.53117 21.2683 5.236 20.2417 5.14617V3.85C20.2417 3.49708 19.9529 3.20833 19.6 3.20833C19.2471 3.20833 18.9583 3.49708 18.9583 3.85V5.14617C16.7446 5.29375 15.7372 6.23058 15.7372 8.14275C15.7372 10.2538 17.7328 10.6196 18.9583 10.6773V14.0782C17.7969 14.0012 17.0526 13.7253 17.0526 13.3403ZM22.1474 12.397C22.1474 12.7756 22.141 13.8664 20.2417 14.0653V10.7158C21.5828 10.8313 22.1474 11.3383 22.1474 12.397ZM17.0526 8.14275C17.0526 7.38558 17.059 6.60275 18.9583 6.46158V9.34908C17.059 9.22075 17.0526 8.52775 17.0526 8.14275Z" fill="#F4F1E9"/>
<path d="M19.6 20.5333C25.2723 20.5333 29.8667 15.939 29.8667 10.2667C29.8667 4.59433 25.2723 0 19.6 0C13.9277 0 9.33333 4.59433 9.33333 10.2667C9.33333 15.939 13.9277 20.5333 19.6 20.5333ZM19.6 1.28333C24.5537 1.28333 28.5833 5.313 28.5833 10.2667C28.5833 15.2203 24.5537 19.25 19.6 19.25C14.6463 19.25 10.6167 15.2203 10.6167 10.2667C10.6167 5.313 14.6463 1.28333 19.6 1.28333Z" fill="#F4F1E9"/>
</svg>
